<mxfile host="app.diagrams.net" modified="2024-06-07T07:24:49.505Z" agent="Mozilla/5.0 (Windows NT 10.0; Win64; x64) AppleWebKit/537.36 (KHTML, like Gecko) Chrome/125.0.0.0 Safari/537.36" etag="9MsS8lXH2m7focN-jDiw" version="24.5.1" type="github">
  <diagram name="Page-1" id="miKHUleJWnbwBVPPGbA9">
    <mxGraphModel dx="1728" dy="915" grid="1" gridSize="10" guides="1" tooltips="1" connect="1" arrows="1" fold="1" page="1" pageScale="1" pageWidth="850" pageHeight="1100" math="0" shadow="0">
      <root>
        <mxCell id="0" />
        <mxCell id="1" parent="0" />
        <mxCell id="A1N3vKeTiDZelZiRoxp--2" value="AWS Cloud" style="points=[[0,0],[0.25,0],[0.5,0],[0.75,0],[1,0],[1,0.25],[1,0.5],[1,0.75],[1,1],[0.75,1],[0.5,1],[0.25,1],[0,1],[0,0.75],[0,0.5],[0,0.25]];outlineConnect=0;gradientColor=none;html=1;whiteSpace=wrap;fontSize=12;fontStyle=0;container=1;pointerEvents=0;collapsible=0;recursiveResize=0;shape=mxgraph.aws4.group;grIcon=mxgraph.aws4.group_aws_cloud_alt;strokeColor=#232F3E;fillColor=none;verticalAlign=top;align=left;spacingLeft=30;fontColor=#232F3E;dashed=0;" vertex="1" parent="1">
          <mxGeometry y="40" width="1080" height="920" as="geometry" />
        </mxCell>
        <mxCell id="A1N3vKeTiDZelZiRoxp--1" value="&lt;b&gt;&lt;font color=&quot;#ff3333&quot; style=&quot;font-size: 14px;&quot;&gt;Region A&lt;/font&gt;&lt;/b&gt;" style="points=[[0,0],[0.25,0],[0.5,0],[0.75,0],[1,0],[1,0.25],[1,0.5],[1,0.75],[1,1],[0.75,1],[0.5,1],[0.25,1],[0,1],[0,0.75],[0,0.5],[0,0.25]];outlineConnect=0;gradientColor=none;html=1;whiteSpace=wrap;fontSize=12;fontStyle=0;container=1;pointerEvents=0;collapsible=0;recursiveResize=0;shape=mxgraph.aws4.group;grIcon=mxgraph.aws4.group_region;strokeColor=#00A4A6;fillColor=none;verticalAlign=top;align=left;spacingLeft=30;fontColor=#147EBA;dashed=1;" vertex="1" parent="A1N3vKeTiDZelZiRoxp--2">
          <mxGeometry x="40" y="40" width="360" height="240" as="geometry" />
        </mxCell>
        <mxCell id="A1N3vKeTiDZelZiRoxp--24" value="&lt;b&gt;AWS Account A&lt;/b&gt;" style="points=[[0,0],[0.25,0],[0.5,0],[0.75,0],[1,0],[1,0.25],[1,0.5],[1,0.75],[1,1],[0.75,1],[0.5,1],[0.25,1],[0,1],[0,0.75],[0,0.5],[0,0.25]];outlineConnect=0;gradientColor=none;html=1;whiteSpace=wrap;fontSize=12;fontStyle=0;container=1;pointerEvents=0;collapsible=0;recursiveResize=0;shape=mxgraph.aws4.group;grIcon=mxgraph.aws4.group_account;strokeColor=#CD2264;fillColor=none;verticalAlign=top;align=left;spacingLeft=30;fontColor=#CD2264;dashed=0;" vertex="1" parent="A1N3vKeTiDZelZiRoxp--1">
          <mxGeometry x="40" y="40" width="280" height="160" as="geometry" />
        </mxCell>
        <mxCell id="A1N3vKeTiDZelZiRoxp--33" value="Default event bus" style="sketch=0;outlineConnect=0;fontColor=#232F3E;gradientColor=none;fillColor=#E7157B;strokeColor=none;dashed=0;verticalLabelPosition=bottom;verticalAlign=top;align=center;html=1;fontSize=12;fontStyle=0;aspect=fixed;pointerEvents=1;shape=mxgraph.aws4.eventbridge_default_event_bus_resource;" vertex="1" parent="A1N3vKeTiDZelZiRoxp--24">
          <mxGeometry x="31" y="53.5" width="78" height="53" as="geometry" />
        </mxCell>
        <mxCell id="A1N3vKeTiDZelZiRoxp--34" value="Eventbridge rule" style="sketch=0;outlineConnect=0;fontColor=#232F3E;gradientColor=none;fillColor=#E7157B;strokeColor=none;dashed=0;verticalLabelPosition=bottom;verticalAlign=top;align=center;html=1;fontSize=12;fontStyle=0;aspect=fixed;pointerEvents=1;shape=mxgraph.aws4.rule_3;" vertex="1" parent="A1N3vKeTiDZelZiRoxp--24">
          <mxGeometry x="171" y="46" width="78" height="68" as="geometry" />
        </mxCell>
        <mxCell id="A1N3vKeTiDZelZiRoxp--35" value="" style="edgeStyle=orthogonalEdgeStyle;html=1;endArrow=openThin;elbow=vertical;startArrow=none;endFill=0;strokeColor=#545B64;rounded=0;" edge="1" parent="A1N3vKeTiDZelZiRoxp--24">
          <mxGeometry width="100" relative="1" as="geometry">
            <mxPoint x="121" y="79.79999999999995" as="sourcePoint" />
            <mxPoint x="161" y="79.79999999999995" as="targetPoint" />
          </mxGeometry>
        </mxCell>
        <mxCell id="A1N3vKeTiDZelZiRoxp--3" value="&lt;font color=&quot;#ff0000&quot; style=&quot;font-size: 14px;&quot;&gt;&lt;b&gt;Region B&lt;/b&gt;&lt;/font&gt;" style="points=[[0,0],[0.25,0],[0.5,0],[0.75,0],[1,0],[1,0.25],[1,0.5],[1,0.75],[1,1],[0.75,1],[0.5,1],[0.25,1],[0,1],[0,0.75],[0,0.5],[0,0.25]];outlineConnect=0;gradientColor=none;html=1;whiteSpace=wrap;fontSize=12;fontStyle=0;container=1;pointerEvents=0;collapsible=0;recursiveResize=0;shape=mxgraph.aws4.group;grIcon=mxgraph.aws4.group_region;strokeColor=#00A4A6;fillColor=none;verticalAlign=top;align=left;spacingLeft=30;fontColor=#147EBA;dashed=1;" vertex="1" parent="A1N3vKeTiDZelZiRoxp--2">
          <mxGeometry x="40" y="360" width="360" height="240" as="geometry" />
        </mxCell>
        <mxCell id="A1N3vKeTiDZelZiRoxp--25" value="&lt;b&gt;AWS Account B&lt;/b&gt;" style="points=[[0,0],[0.25,0],[0.5,0],[0.75,0],[1,0],[1,0.25],[1,0.5],[1,0.75],[1,1],[0.75,1],[0.5,1],[0.25,1],[0,1],[0,0.75],[0,0.5],[0,0.25]];outlineConnect=0;gradientColor=none;html=1;whiteSpace=wrap;fontSize=12;fontStyle=0;container=1;pointerEvents=0;collapsible=0;recursiveResize=0;shape=mxgraph.aws4.group;grIcon=mxgraph.aws4.group_account;strokeColor=#CD2264;fillColor=none;verticalAlign=top;align=left;spacingLeft=30;fontColor=#CD2264;dashed=0;" vertex="1" parent="A1N3vKeTiDZelZiRoxp--3">
          <mxGeometry x="40" y="40" width="280" height="160" as="geometry" />
        </mxCell>
        <mxCell id="A1N3vKeTiDZelZiRoxp--17" value="Default event bus" style="sketch=0;outlineConnect=0;fontColor=#232F3E;gradientColor=none;fillColor=#E7157B;strokeColor=none;dashed=0;verticalLabelPosition=bottom;verticalAlign=top;align=center;html=1;fontSize=12;fontStyle=0;aspect=fixed;pointerEvents=1;shape=mxgraph.aws4.eventbridge_default_event_bus_resource;" vertex="1" parent="A1N3vKeTiDZelZiRoxp--25">
          <mxGeometry x="30" y="53.5" width="78" height="53" as="geometry" />
        </mxCell>
        <mxCell id="A1N3vKeTiDZelZiRoxp--20" value="Eventbridge rule" style="sketch=0;outlineConnect=0;fontColor=#232F3E;gradientColor=none;fillColor=#E7157B;strokeColor=none;dashed=0;verticalLabelPosition=bottom;verticalAlign=top;align=center;html=1;fontSize=12;fontStyle=0;aspect=fixed;pointerEvents=1;shape=mxgraph.aws4.rule_3;" vertex="1" parent="A1N3vKeTiDZelZiRoxp--25">
          <mxGeometry x="170" y="46" width="78" height="68" as="geometry" />
        </mxCell>
        <mxCell id="A1N3vKeTiDZelZiRoxp--29" value="" style="edgeStyle=orthogonalEdgeStyle;html=1;endArrow=openThin;elbow=vertical;startArrow=none;endFill=0;strokeColor=#545B64;rounded=0;" edge="1" parent="A1N3vKeTiDZelZiRoxp--25">
          <mxGeometry width="100" relative="1" as="geometry">
            <mxPoint x="120" y="79.8" as="sourcePoint" />
            <mxPoint x="160" y="79.8" as="targetPoint" />
          </mxGeometry>
        </mxCell>
        <mxCell id="A1N3vKeTiDZelZiRoxp--4" value="&lt;font style=&quot;font-size: 14px;&quot; color=&quot;#ff0000&quot;&gt;&lt;b&gt;Region C&lt;/b&gt;&lt;/font&gt;" style="points=[[0,0],[0.25,0],[0.5,0],[0.75,0],[1,0],[1,0.25],[1,0.5],[1,0.75],[1,1],[0.75,1],[0.5,1],[0.25,1],[0,1],[0,0.75],[0,0.5],[0,0.25]];outlineConnect=0;gradientColor=none;html=1;whiteSpace=wrap;fontSize=12;fontStyle=0;container=1;pointerEvents=0;collapsible=0;recursiveResize=0;shape=mxgraph.aws4.group;grIcon=mxgraph.aws4.group_region;strokeColor=#00A4A6;fillColor=none;verticalAlign=top;align=left;spacingLeft=30;fontColor=#147EBA;dashed=1;" vertex="1" parent="A1N3vKeTiDZelZiRoxp--2">
          <mxGeometry x="40" y="640" width="360" height="240" as="geometry" />
        </mxCell>
        <mxCell id="A1N3vKeTiDZelZiRoxp--26" value="&lt;b&gt;AWS Account C&lt;/b&gt;" style="points=[[0,0],[0.25,0],[0.5,0],[0.75,0],[1,0],[1,0.25],[1,0.5],[1,0.75],[1,1],[0.75,1],[0.5,1],[0.25,1],[0,1],[0,0.75],[0,0.5],[0,0.25]];outlineConnect=0;gradientColor=none;html=1;whiteSpace=wrap;fontSize=12;fontStyle=0;container=1;pointerEvents=0;collapsible=0;recursiveResize=0;shape=mxgraph.aws4.group;grIcon=mxgraph.aws4.group_account;strokeColor=#CD2264;fillColor=none;verticalAlign=top;align=left;spacingLeft=30;fontColor=#CD2264;dashed=0;" vertex="1" parent="A1N3vKeTiDZelZiRoxp--4">
          <mxGeometry x="40" y="40" width="280" height="160" as="geometry" />
        </mxCell>
        <mxCell id="A1N3vKeTiDZelZiRoxp--30" value="Default event bus" style="sketch=0;outlineConnect=0;fontColor=#232F3E;gradientColor=none;fillColor=#E7157B;strokeColor=none;dashed=0;verticalLabelPosition=bottom;verticalAlign=top;align=center;html=1;fontSize=12;fontStyle=0;aspect=fixed;pointerEvents=1;shape=mxgraph.aws4.eventbridge_default_event_bus_resource;" vertex="1" parent="A1N3vKeTiDZelZiRoxp--26">
          <mxGeometry x="31" y="53.5" width="78" height="53" as="geometry" />
        </mxCell>
        <mxCell id="A1N3vKeTiDZelZiRoxp--31" value="Eventbridge rule" style="sketch=0;outlineConnect=0;fontColor=#232F3E;gradientColor=none;fillColor=#E7157B;strokeColor=none;dashed=0;verticalLabelPosition=bottom;verticalAlign=top;align=center;html=1;fontSize=12;fontStyle=0;aspect=fixed;pointerEvents=1;shape=mxgraph.aws4.rule_3;" vertex="1" parent="A1N3vKeTiDZelZiRoxp--26">
          <mxGeometry x="171" y="46" width="78" height="68" as="geometry" />
        </mxCell>
        <mxCell id="A1N3vKeTiDZelZiRoxp--32" value="" style="edgeStyle=orthogonalEdgeStyle;html=1;endArrow=openThin;elbow=vertical;startArrow=none;endFill=0;strokeColor=#545B64;rounded=0;" edge="1" parent="A1N3vKeTiDZelZiRoxp--26">
          <mxGeometry width="100" relative="1" as="geometry">
            <mxPoint x="121" y="79.79999999999995" as="sourcePoint" />
            <mxPoint x="161" y="79.79999999999995" as="targetPoint" />
          </mxGeometry>
        </mxCell>
        <mxCell id="A1N3vKeTiDZelZiRoxp--5" value="&lt;b&gt;&lt;font color=&quot;#0000ff&quot; style=&quot;font-size: 14px;&quot;&gt;Main Region&lt;/font&gt;&lt;/b&gt;" style="points=[[0,0],[0.25,0],[0.5,0],[0.75,0],[1,0],[1,0.25],[1,0.5],[1,0.75],[1,1],[0.75,1],[0.5,1],[0.25,1],[0,1],[0,0.75],[0,0.5],[0,0.25]];outlineConnect=0;gradientColor=none;html=1;whiteSpace=wrap;fontSize=12;fontStyle=0;container=1;pointerEvents=0;collapsible=0;recursiveResize=0;shape=mxgraph.aws4.group;grIcon=mxgraph.aws4.group_region;strokeColor=#00A4A6;fillColor=none;verticalAlign=top;align=left;spacingLeft=30;fontColor=#147EBA;dashed=1;" vertex="1" parent="A1N3vKeTiDZelZiRoxp--2">
          <mxGeometry x="520" y="200" width="520" height="420" as="geometry" />
        </mxCell>
        <mxCell id="A1N3vKeTiDZelZiRoxp--36" value="&lt;b&gt;AWS Main Account&lt;/b&gt;" style="points=[[0,0],[0.25,0],[0.5,0],[0.75,0],[1,0],[1,0.25],[1,0.5],[1,0.75],[1,1],[0.75,1],[0.5,1],[0.25,1],[0,1],[0,0.75],[0,0.5],[0,0.25]];outlineConnect=0;gradientColor=none;html=1;whiteSpace=wrap;fontSize=12;fontStyle=0;container=1;pointerEvents=0;collapsible=0;recursiveResize=0;shape=mxgraph.aws4.group;grIcon=mxgraph.aws4.group_account;strokeColor=#CD2264;fillColor=none;verticalAlign=top;align=left;spacingLeft=30;fontColor=#CD2264;dashed=0;" vertex="1" parent="A1N3vKeTiDZelZiRoxp--5">
          <mxGeometry x="40" y="40" width="440" height="360" as="geometry" />
        </mxCell>
        <mxCell id="A1N3vKeTiDZelZiRoxp--15" value="Custom event bus" style="sketch=0;outlineConnect=0;fontColor=#232F3E;gradientColor=none;fillColor=#E7157B;strokeColor=none;dashed=0;verticalLabelPosition=bottom;verticalAlign=top;align=center;html=1;fontSize=12;fontStyle=0;aspect=fixed;pointerEvents=1;shape=mxgraph.aws4.eventbridge_custom_event_bus_resource;" vertex="1" parent="A1N3vKeTiDZelZiRoxp--36">
          <mxGeometry x="40" y="204.5" width="78" height="69" as="geometry" />
        </mxCell>
        <mxCell id="A1N3vKeTiDZelZiRoxp--41" value="Eventbridge rule" style="sketch=0;outlineConnect=0;fontColor=#232F3E;gradientColor=none;fillColor=#E7157B;strokeColor=none;dashed=0;verticalLabelPosition=bottom;verticalAlign=top;align=center;html=1;fontSize=12;fontStyle=0;aspect=fixed;pointerEvents=1;shape=mxgraph.aws4.rule_3;" vertex="1" parent="A1N3vKeTiDZelZiRoxp--36">
          <mxGeometry x="180" y="205.5" width="78" height="68" as="geometry" />
        </mxCell>
        <mxCell id="A1N3vKeTiDZelZiRoxp--42" value="" style="edgeStyle=orthogonalEdgeStyle;html=1;endArrow=openThin;elbow=vertical;startArrow=none;endFill=0;strokeColor=#545B64;rounded=0;" edge="1" parent="A1N3vKeTiDZelZiRoxp--36">
          <mxGeometry width="100" relative="1" as="geometry">
            <mxPoint x="130" y="239.25999999999993" as="sourcePoint" />
            <mxPoint x="170" y="239.25999999999993" as="targetPoint" />
          </mxGeometry>
        </mxCell>
        <mxCell id="A1N3vKeTiDZelZiRoxp--43" value="" style="edgeStyle=orthogonalEdgeStyle;html=1;endArrow=openThin;elbow=vertical;startArrow=none;endFill=0;strokeColor=#545B64;rounded=0;" edge="1" parent="A1N3vKeTiDZelZiRoxp--36">
          <mxGeometry width="100" relative="1" as="geometry">
            <mxPoint x="270" y="238.75999999999993" as="sourcePoint" />
            <mxPoint x="310" y="238.75999999999993" as="targetPoint" />
          </mxGeometry>
        </mxCell>
        <mxCell id="A1N3vKeTiDZelZiRoxp--23" value="Alert Lambda" style="sketch=0;points=[[0,0,0],[0.25,0,0],[0.5,0,0],[0.75,0,0],[1,0,0],[0,1,0],[0.25,1,0],[0.5,1,0],[0.75,1,0],[1,1,0],[0,0.25,0],[0,0.5,0],[0,0.75,0],[1,0.25,0],[1,0.5,0],[1,0.75,0]];outlineConnect=0;fontColor=#232F3E;fillColor=#ED7100;strokeColor=#ffffff;dashed=0;verticalLabelPosition=bottom;verticalAlign=top;align=center;html=1;fontSize=12;fontStyle=0;aspect=fixed;shape=mxgraph.aws4.resourceIcon;resIcon=mxgraph.aws4.lambda;" vertex="1" parent="A1N3vKeTiDZelZiRoxp--36">
          <mxGeometry x="330" y="200" width="78" height="78" as="geometry" />
        </mxCell>
        <mxCell id="A1N3vKeTiDZelZiRoxp--53" value="Default event bus" style="sketch=0;outlineConnect=0;fontColor=#232F3E;gradientColor=none;fillColor=#E7157B;strokeColor=none;dashed=0;verticalLabelPosition=bottom;verticalAlign=top;align=center;html=1;fontSize=12;fontStyle=0;aspect=fixed;pointerEvents=1;shape=mxgraph.aws4.eventbridge_default_event_bus_resource;" vertex="1" parent="A1N3vKeTiDZelZiRoxp--36">
          <mxGeometry x="40" y="67.5" width="78" height="53" as="geometry" />
        </mxCell>
        <mxCell id="A1N3vKeTiDZelZiRoxp--54" value="Eventbridge rule" style="sketch=0;outlineConnect=0;fontColor=#232F3E;gradientColor=none;fillColor=#E7157B;strokeColor=none;dashed=0;verticalLabelPosition=bottom;verticalAlign=top;align=center;html=1;fontSize=12;fontStyle=0;aspect=fixed;pointerEvents=1;shape=mxgraph.aws4.rule_3;" vertex="1" parent="A1N3vKeTiDZelZiRoxp--36">
          <mxGeometry x="180" y="60" width="78" height="68" as="geometry" />
        </mxCell>
        <mxCell id="A1N3vKeTiDZelZiRoxp--55" value="" style="edgeStyle=orthogonalEdgeStyle;html=1;endArrow=openThin;elbow=vertical;startArrow=none;endFill=0;strokeColor=#545B64;rounded=0;" edge="1" parent="A1N3vKeTiDZelZiRoxp--36">
          <mxGeometry width="100" relative="1" as="geometry">
            <mxPoint x="130" y="93.79999999999995" as="sourcePoint" />
            <mxPoint x="170" y="93.79999999999995" as="targetPoint" />
          </mxGeometry>
        </mxCell>
        <mxCell id="A1N3vKeTiDZelZiRoxp--56" value="" style="endArrow=none;html=1;rounded=0;startArrow=classic;startFill=1;endFill=0;" edge="1" parent="A1N3vKeTiDZelZiRoxp--36">
          <mxGeometry width="50" height="50" relative="1" as="geometry">
            <mxPoint x="118" y="200" as="sourcePoint" />
            <mxPoint x="168" y="150" as="targetPoint" />
          </mxGeometry>
        </mxCell>
        <mxCell id="A1N3vKeTiDZelZiRoxp--44" style="edgeStyle=orthogonalEdgeStyle;rounded=0;orthogonalLoop=1;jettySize=auto;html=1;exitX=1;exitY=0.5;exitDx=0;exitDy=0;verticalAlign=top;flowAnimation=0;endArrow=classic;endFill=1;" edge="1" parent="A1N3vKeTiDZelZiRoxp--2" source="A1N3vKeTiDZelZiRoxp--25">
          <mxGeometry relative="1" as="geometry">
            <mxPoint x="560" y="480" as="targetPoint" />
            <Array as="points">
              <mxPoint x="560" y="480" />
            </Array>
          </mxGeometry>
        </mxCell>
        <mxCell id="A1N3vKeTiDZelZiRoxp--45" style="edgeStyle=orthogonalEdgeStyle;rounded=0;orthogonalLoop=1;jettySize=auto;html=1;exitX=1;exitY=0.5;exitDx=0;exitDy=0;endArrow=none;endFill=0;" edge="1" parent="A1N3vKeTiDZelZiRoxp--2" source="A1N3vKeTiDZelZiRoxp--26">
          <mxGeometry relative="1" as="geometry">
            <mxPoint x="480" y="480" as="targetPoint" />
          </mxGeometry>
        </mxCell>
        <mxCell id="A1N3vKeTiDZelZiRoxp--46" style="edgeStyle=orthogonalEdgeStyle;rounded=0;orthogonalLoop=1;jettySize=auto;html=1;exitX=1;exitY=0.5;exitDx=0;exitDy=0;endArrow=none;endFill=0;" edge="1" parent="A1N3vKeTiDZelZiRoxp--2" source="A1N3vKeTiDZelZiRoxp--24">
          <mxGeometry relative="1" as="geometry">
            <mxPoint x="480" y="480" as="targetPoint" />
          </mxGeometry>
        </mxCell>
        <mxCell id="A1N3vKeTiDZelZiRoxp--51" value="&lt;div style=&quot;font-size: 14px;&quot;&gt;&lt;font style=&quot;font-size: 14px;&quot;&gt;&lt;br&gt;&lt;/font&gt;&lt;/div&gt;&lt;font style=&quot;font-size: 14px;&quot;&gt;&amp;nbsp;1. All Eventbridge rules in Secondary accounts require IAM role with policy, allowing to PutEvents in Custom event bus in Main account.&lt;br&gt;&lt;/font&gt;&lt;div style=&quot;font-size: 14px;&quot;&gt;&lt;font style=&quot;font-size: 14px;&quot;&gt;&lt;br&gt;&lt;/font&gt;&lt;/div&gt;&lt;div style=&quot;font-size: 14px;&quot;&gt;&lt;font style=&quot;font-size: 14px;&quot;&gt;&amp;nbsp;2. Custom event bus should be created in Main account. Resource based policy should be created and attached to Custom event bus to allow Secondary accounts communication.&lt;/font&gt;&lt;/div&gt;&lt;div style=&quot;font-size: 14px;&quot;&gt;&lt;br&gt;&lt;/div&gt;" style="rounded=0;whiteSpace=wrap;html=1;align=left;" vertex="1" parent="A1N3vKeTiDZelZiRoxp--2">
          <mxGeometry x="520" y="680" width="520" height="140" as="geometry" />
        </mxCell>
      </root>
    </mxGraphModel>
  </diagram>
</mxfile>
